<svg xmlns="http://www.w3.org/2000/svg" xmlns:xlink="http://www.w3.org/1999/xlink" width="500" zoomAndPan="magnify" viewBox="0 0 375 374.999991" height="500" preserveAspectRatio="xMidYMid meet" version="1.0"><defs><g/><clipPath id="0abfbb43df"><rect x="0" width="282" y="0" height="25"/></clipPath></defs><rect x="-37.5" width="450" fill="#ffffff" y="-37.499999" height="449.999989" fill-opacity="1"/><rect x="-37.5" width="450" fill="#000000" y="-37.499999" height="449.999989" fill-opacity="1"/><g transform="matrix(1, 0, 0, 1, 47, 168)"><g clip-path="url(#0abfbb43df)"><g fill="#ffffff" fill-opacity="1"><g transform="translate(0.473916, 19.618984)"><g><path d="M 24.125 0 L 17.640625 0 C 17.347656 -0.40625 17.140625 -0.929688 17.015625 -1.578125 C 16.910156 -2.066406 16.75 -2.546875 16.53125 -3.015625 C 16.320312 -3.492188 15.957031 -3.890625 15.4375 -4.203125 C 14.914062 -4.515625 14.144531 -4.6875 13.125 -4.71875 L 8.671875 -4.71875 L 8.671875 0 L 1.828125 0 L 1.828125 -16.328125 L 12.96875 -16.328125 C 15.625 -16.328125 17.769531 -16.128906 19.40625 -15.734375 C 21.039062 -15.335938 22.234375 -14.710938 22.984375 -13.859375 C 23.742188 -13.003906 24.125 -11.890625 24.125 -10.515625 C 24.125 -9.367188 23.863281 -8.40625 23.34375 -7.625 C 22.820312 -6.84375 22 -6.222656 20.875 -5.765625 C 21.957031 -5.316406 22.660156 -4.78125 22.984375 -4.15625 C 23.304688 -3.53125 23.503906 -2.84375 23.578125 -2.09375 C 23.660156 -1.425781 23.84375 -0.726562 24.125 0 Z M 8.671875 -8.75 L 12.59375 -8.75 C 13.6875 -8.75 14.546875 -8.796875 15.171875 -8.890625 C 15.804688 -8.992188 16.269531 -9.128906 16.5625 -9.296875 C 16.863281 -9.472656 17.054688 -9.664062 17.140625 -9.875 C 17.222656 -10.082031 17.265625 -10.296875 17.265625 -10.515625 C 17.265625 -10.734375 17.222656 -10.945312 17.140625 -11.15625 C 17.054688 -11.375 16.863281 -11.566406 16.5625 -11.734375 C 16.269531 -11.910156 15.804688 -12.046875 15.171875 -12.140625 C 14.546875 -12.242188 13.6875 -12.296875 12.59375 -12.296875 L 8.671875 -12.296875 Z M 8.671875 -8.75 "/></g></g></g><g fill="#ffffff" fill-opacity="1"><g transform="translate(25.494035, 19.618984)"><g><path d="M 21.484375 0 L 1.828125 0 L 1.828125 -16.328125 L 20.59375 -16.328125 L 20.59375 -12.296875 L 8.671875 -12.296875 L 8.671875 -9.734375 L 18.75 -9.734375 L 18.75 -6.59375 L 8.671875 -6.59375 L 8.671875 -4.046875 L 21.484375 -4.046875 Z M 21.484375 0 "/></g></g></g><g fill="#ffffff" fill-opacity="1"><g transform="translate(47.885847, 19.618984)"><g><path d="M 26.0625 0 L 17.90625 0 L 8.671875 -11.046875 L 8.671875 0 L 1.828125 0 L 1.828125 -16.328125 L 9.96875 -16.328125 L 19.203125 -5.34375 L 19.203125 -16.328125 L 26.0625 -16.328125 Z M 26.0625 0 "/></g></g></g><g fill="#ffffff" fill-opacity="1"><g transform="translate(75.750456, 19.618984)"><g><path d="M 12.34375 0.359375 C 8.3125 0.359375 5.34375 -0.472656 3.4375 -2.140625 C 1.75 -3.609375 0.90625 -5.613281 0.90625 -8.15625 C 0.90625 -10.695312 1.75 -12.703125 3.4375 -14.171875 C 5.34375 -15.835938 8.3125 -16.671875 12.34375 -16.671875 C 16.382812 -16.671875 19.359375 -15.835938 21.265625 -14.171875 C 22.953125 -12.703125 23.796875 -10.695312 23.796875 -8.15625 C 23.796875 -5.613281 22.953125 -3.609375 21.265625 -2.140625 C 19.359375 -0.472656 16.382812 0.359375 12.34375 0.359375 Z M 12.34375 -4.03125 C 14 -4.03125 15.21875 -4.503906 16 -5.453125 C 16.613281 -6.222656 16.921875 -7.125 16.921875 -8.15625 C 16.921875 -9.195312 16.613281 -10.097656 16 -10.859375 C 15.21875 -11.816406 14 -12.296875 12.34375 -12.296875 C 10.695312 -12.296875 9.484375 -11.816406 8.703125 -10.859375 C 8.078125 -10.097656 7.765625 -9.195312 7.765625 -8.15625 C 7.765625 -7.125 8.078125 -6.222656 8.703125 -5.453125 C 9.484375 -4.503906 10.695312 -4.03125 12.34375 -4.03125 Z M 12.34375 -4.03125 "/></g></g></g><g fill="#ffffff" fill-opacity="1"><g transform="translate(100.440614, 19.618984)"><g/></g></g><g fill="#ffffff" fill-opacity="1"><g transform="translate(106.220614, 19.618984)"><g><path d="M 24.125 0 L 17.640625 0 C 17.347656 -0.40625 17.140625 -0.929688 17.015625 -1.578125 C 16.910156 -2.066406 16.75 -2.546875 16.53125 -3.015625 C 16.320312 -3.492188 15.957031 -3.890625 15.4375 -4.203125 C 14.914062 -4.515625 14.144531 -4.6875 13.125 -4.71875 L 8.671875 -4.71875 L 8.671875 0 L 1.828125 0 L 1.828125 -16.328125 L 12.96875 -16.328125 C 15.625 -16.328125 17.769531 -16.128906 19.40625 -15.734375 C 21.039062 -15.335938 22.234375 -14.710938 22.984375 -13.859375 C 23.742188 -13.003906 24.125 -11.890625 24.125 -10.515625 C 24.125 -9.367188 23.863281 -8.40625 23.34375 -7.625 C 22.820312 -6.84375 22 -6.222656 20.875 -5.765625 C 21.957031 -5.316406 22.660156 -4.78125 22.984375 -4.15625 C 23.304688 -3.53125 23.503906 -2.84375 23.578125 -2.09375 C 23.660156 -1.425781 23.84375 -0.726562 24.125 0 Z M 8.671875 -8.75 L 12.59375 -8.75 C 13.6875 -8.75 14.546875 -8.796875 15.171875 -8.890625 C 15.804688 -8.992188 16.269531 -9.128906 16.5625 -9.296875 C 16.863281 -9.472656 17.054688 -9.664062 17.140625 -9.875 C 17.222656 -10.082031 17.265625 -10.296875 17.265625 -10.515625 C 17.265625 -10.734375 17.222656 -10.945312 17.140625 -11.15625 C 17.054688 -11.375 16.863281 -11.566406 16.5625 -11.734375 C 16.269531 -11.910156 15.804688 -12.046875 15.171875 -12.140625 C 14.546875 -12.242188 13.6875 -12.296875 12.59375 -12.296875 L 8.671875 -12.296875 Z M 8.671875 -8.75 "/></g></g></g><g fill="#ffffff" fill-opacity="1"><g transform="translate(131.240734, 19.618984)"><g><path d="M 27.4375 0 L 20.484375 0 L 18.953125 -2.671875 L 8.65625 -2.671875 L 7.109375 0 L 0.171875 0 L 10.625 -16.328125 L 16.984375 -16.328125 Z M 16.640625 -6.71875 L 13.8125 -11.671875 L 10.96875 -6.71875 Z M 16.640625 -6.71875 "/></g></g></g><g fill="#ffffff" fill-opacity="1"><g transform="translate(158.832271, 19.618984)"><g><path d="M 26.0625 0 L 17.90625 0 L 8.671875 -11.046875 L 8.671875 0 L 1.828125 0 L 1.828125 -16.328125 L 9.96875 -16.328125 L 19.203125 -5.34375 L 19.203125 -16.328125 L 26.0625 -16.328125 Z M 26.0625 0 "/></g></g></g><g fill="#ffffff" fill-opacity="1"><g transform="translate(186.696879, 19.618984)"><g><path d="M 12.34375 0.359375 C 8.3125 0.359375 5.34375 -0.472656 3.4375 -2.140625 C 1.75 -3.609375 0.90625 -5.613281 0.90625 -8.15625 C 0.90625 -10.695312 1.75 -12.703125 3.4375 -14.171875 C 5.34375 -15.835938 8.3125 -16.671875 12.34375 -16.671875 C 14.644531 -16.671875 16.554688 -16.410156 18.078125 -15.890625 C 19.609375 -15.367188 20.804688 -14.660156 21.671875 -13.765625 C 22.546875 -12.878906 23.140625 -11.859375 23.453125 -10.703125 L 16.125 -10.703125 C 15.363281 -11.753906 14.101562 -12.28125 12.34375 -12.28125 C 10.695312 -12.28125 9.484375 -11.804688 8.703125 -10.859375 C 8.078125 -10.085938 7.765625 -9.1875 7.765625 -8.15625 C 7.765625 -7.113281 8.078125 -6.210938 8.703125 -5.453125 C 9.484375 -4.503906 10.695312 -4.03125 12.34375 -4.03125 C 13.6875 -4.03125 14.691406 -4.144531 15.359375 -4.375 C 16.035156 -4.601562 16.523438 -4.90625 16.828125 -5.28125 L 14.15625 -5.28125 L 14.15625 -8.15625 L 23.453125 -8.15625 L 23.453125 0.015625 L 20.609375 0.015625 L 20.03125 -1.578125 C 18.21875 -0.285156 15.65625 0.359375 12.34375 0.359375 Z M 12.34375 0.359375 "/></g></g></g><g fill="#ffffff" fill-opacity="1"><g transform="translate(211.512196, 19.618984)"><g><path d="M 21.484375 0 L 1.828125 0 L 1.828125 -16.328125 L 20.59375 -16.328125 L 20.59375 -12.296875 L 8.671875 -12.296875 L 8.671875 -9.734375 L 18.75 -9.734375 L 18.75 -6.59375 L 8.671875 -6.59375 L 8.671875 -4.046875 L 21.484375 -4.046875 Z M 21.484375 0 "/></g></g></g><g fill="#ffffff" fill-opacity="1"><g transform="translate(233.904008, 19.618984)"><g><path d="M 24.125 0 L 17.640625 0 C 17.347656 -0.40625 17.140625 -0.929688 17.015625 -1.578125 C 16.910156 -2.066406 16.75 -2.546875 16.53125 -3.015625 C 16.320312 -3.492188 15.957031 -3.890625 15.4375 -4.203125 C 14.914062 -4.515625 14.144531 -4.6875 13.125 -4.71875 L 8.671875 -4.71875 L 8.671875 0 L 1.828125 0 L 1.828125 -16.328125 L 12.96875 -16.328125 C 15.625 -16.328125 17.769531 -16.128906 19.40625 -15.734375 C 21.039062 -15.335938 22.234375 -14.710938 22.984375 -13.859375 C 23.742188 -13.003906 24.125 -11.890625 24.125 -10.515625 C 24.125 -9.367188 23.863281 -8.40625 23.34375 -7.625 C 22.820312 -6.84375 22 -6.222656 20.875 -5.765625 C 21.957031 -5.316406 22.660156 -4.78125 22.984375 -4.15625 C 23.304688 -3.53125 23.503906 -2.84375 23.578125 -2.09375 C 23.660156 -1.425781 23.84375 -0.726562 24.125 0 Z M 8.671875 -8.75 L 12.59375 -8.75 C 13.6875 -8.75 14.546875 -8.796875 15.171875 -8.890625 C 15.804688 -8.992188 16.269531 -9.128906 16.5625 -9.296875 C 16.863281 -9.472656 17.054688 -9.664062 17.140625 -9.875 C 17.222656 -10.082031 17.265625 -10.296875 17.265625 -10.515625 C 17.265625 -10.734375 17.222656 -10.945312 17.140625 -11.15625 C 17.054688 -11.375 16.863281 -11.566406 16.5625 -11.734375 C 16.269531 -11.910156 15.804688 -12.046875 15.171875 -12.140625 C 14.546875 -12.242188 13.6875 -12.296875 12.59375 -12.296875 L 8.671875 -12.296875 Z M 8.671875 -8.75 "/></g></g></g><g fill="#ffffff" fill-opacity="1"><g transform="translate(258.924139, 19.618984)"><g><path d="M 10.796875 0.359375 C 8.585938 0.359375 6.804688 0.125 5.453125 -0.34375 C 4.097656 -0.820312 3.066406 -1.476562 2.359375 -2.3125 C 1.660156 -3.144531 1.1875 -4.101562 0.9375 -5.1875 L 8.21875 -5.1875 C 8.757812 -4.414062 9.617188 -4.03125 10.796875 -4.03125 C 11.972656 -4.03125 12.828125 -4.414062 13.359375 -5.1875 C 13.410156 -5.257812 13.4375 -5.328125 13.4375 -5.390625 C 13.4375 -5.597656 13.160156 -5.753906 12.609375 -5.859375 C 12.066406 -5.960938 11.257812 -6.039062 10.1875 -6.09375 C 8.832031 -6.15625 7.40625 -6.296875 5.90625 -6.515625 C 2.570312 -7.035156 0.90625 -8.378906 0.90625 -10.546875 C 0.90625 -10.722656 0.914062 -10.914062 0.9375 -11.125 C 1.1875 -12.207031 1.660156 -13.160156 2.359375 -13.984375 C 3.066406 -14.816406 4.097656 -15.472656 5.453125 -15.953125 C 6.804688 -16.429688 8.585938 -16.671875 10.796875 -16.671875 C 13.003906 -16.671875 14.78125 -16.429688 16.125 -15.953125 C 17.476562 -15.472656 18.503906 -14.816406 19.203125 -13.984375 C 19.910156 -13.160156 20.390625 -12.207031 20.640625 -11.125 L 13.359375 -11.125 C 12.828125 -11.894531 11.972656 -12.28125 10.796875 -12.28125 C 9.617188 -12.28125 8.757812 -11.894531 8.21875 -11.125 C 8.175781 -11.0625 8.15625 -11.003906 8.15625 -10.953125 C 8.15625 -10.765625 8.414062 -10.628906 8.9375 -10.546875 C 9.457031 -10.460938 10.222656 -10.390625 11.234375 -10.328125 C 12.253906 -10.265625 13.335938 -10.164062 14.484375 -10.03125 C 15.628906 -9.894531 16.695312 -9.65625 17.6875 -9.3125 C 18.6875 -8.976562 19.46875 -8.476562 20.03125 -7.8125 C 20.46875 -7.3125 20.6875 -6.671875 20.6875 -5.890625 C 20.6875 -5.671875 20.671875 -5.4375 20.640625 -5.1875 C 20.390625 -4.101562 19.910156 -3.144531 19.203125 -2.3125 C 18.503906 -1.476562 17.476562 -0.820312 16.125 -0.34375 C 14.78125 0.125 13.003906 0.359375 10.796875 0.359375 Z M 10.796875 0.359375 "/></g></g></g></g></g><path stroke-linecap="butt" transform="matrix(0.75, 0, 0, 0.75, 47.426409, 150.000019)" fill="none" stroke-linejoin="miter" d="M -0.000836448 1.999975 L 168.280425 1.999975 " stroke="#ffffff" stroke-width="4" stroke-opacity="1" stroke-miterlimit="4"/><path stroke-linecap="butt" transform="matrix(0.75, 0, 0, 0.75, 201.361851, 204.177731)" fill="none" stroke-linejoin="miter" d="M 0.00190663 1.997401 L 168.283168 1.997401 " stroke="#fdfdfd" stroke-width="4" stroke-opacity="1" stroke-miterlimit="4"/></svg>